<svg xmlns="http://www.w3.org/2000/svg" viewBox="0 0 64 64" role="img" aria-labelledby="title desc">
  <title id="title">DevPrep favicon</title>
  <desc id="desc">Pink code braces surrounding a white terminal prompt on a dark background.</desc>

  <rect x="1" y="1" width="62" height="62" rx="12"
        fill="#0b1326" stroke="#31394d" stroke-width="2"/>

  <path d="M24 15
           C19 15 17 18 17 23
           V27
           C17 30 15 32 12 32
           C15 32 17 34 17 37
           V41
           C17 46 19 49 24 49"
        fill="none" stroke="#ffb0cd" stroke-width="5"
        stroke-linecap="square" stroke-linejoin="miter"/>

  <path d="M40 15
           C45 15 47 18 47 23
           V27
           C47 30 49 32 52 32
           C49 32 47 34 47 37
           V41
           C47 46 45 49 40 49"
        fill="none" stroke="#ffb0cd" stroke-width="5"
        stroke-linecap="square" stroke-linejoin="miter"/>

  <path d="M27 26 L34 32 L27 38"
        fill="none" stroke="#dae2fd" stroke-width="4"
        stroke-linecap="square" stroke-linejoin="miter"/>

  <path d="M35 40 H41"
        fill="none" stroke="#dae2fd" stroke-width="4"
        stroke-linecap="square"/>
</svg>
